<?xml version="1.0" encoding="utf-8"?>
<!-- Generator: Adobe Illustrator 16.0.0, SVG Export Plug-In . SVG Version: 6.00 Build 0)  -->
<!DOCTYPE svg PUBLIC "-//W3C//DTD SVG 1.1//EN" "http://www.w3.org/Graphics/SVG/1.1/DTD/svg11.dtd">
<svg version="1.1" id="Layer_1" xmlns="http://www.w3.org/2000/svg" xmlns:xlink="http://www.w3.org/1999/xlink" x="0px" y="0px"
	 width="542.287px" height="62.607px" viewBox="0 0 542.287 62.607" enable-background="new 0 0 542.287 62.607"
	 xml:space="preserve">
<linearGradient id="SVGID_1_" gradientUnits="userSpaceOnUse" x1="25.4556" y1="0.8604" x2="25.4556" y2="61.7476">
	<stop  offset="0" style="stop-color:#F1F2F2"/>
	<stop  offset="1" style="stop-color:#D1D3D4"/>
</linearGradient>
<path fill="url(#SVGID_1_)" d="M20.726,24.424h24.682l-1.893,13.674H18.833l-1.29,9.116h26.832l-1.979,14.533H0L8.514,0.86h42.397
	l-2.064,14.534H22.016L20.726,24.424z"/>
<linearGradient id="SVGID_2_" gradientUnits="userSpaceOnUse" x1="79.9922" y1="0.8604" x2="79.9922" y2="62.6079">
	<stop  offset="0" style="stop-color:#F1F2F2"/>
	<stop  offset="1" style="stop-color:#D1D3D4"/>
</linearGradient>
<path fill="url(#SVGID_2_)" d="M68.541,41.193c-0.688,4.902,3.354,7.311,7.74,7.311c4.558,0,9.029-2.408,9.718-7.311L91.675,0.86
	h15.565l-5.676,40.333C99.587,55.47,86.343,62.607,74.217,62.607c-12.212,0-23.22-7.138-21.241-21.414L58.651,0.86h15.565
	L68.541,41.193z"/>
<linearGradient id="SVGID_3_" gradientUnits="userSpaceOnUse" x1="134.6143" y1="0.8604" x2="134.6143" y2="61.7476">
	<stop  offset="0" style="stop-color:#F1F2F2"/>
	<stop  offset="1" style="stop-color:#D1D3D4"/>
</linearGradient>
<path fill="url(#SVGID_3_)" d="M128.825,42.397h-2.752l-2.666,19.35h-15.565l8.514-60.887h24.338c12.556,0,21.5,6.708,19.779,20.983
	c-1.548,11.266-5.363,15.05-13.705,19.006l14.619,20.897h-20.178L128.825,42.397z M136.995,29.154c4.73,0,7.482-3.526,7.912-7.053
	c0.43-3.697-1.376-6.88-5.934-6.88h-9.03l-1.978,13.933H136.995z"/>
<linearGradient id="SVGID_4_" gradientUnits="userSpaceOnUse" x1="254.6436" y1="23.9941" x2="254.6436" y2="38.6138">
	<stop  offset="0" style="stop-color:#F1F2F2"/>
	<stop  offset="1" style="stop-color:#D1D3D4"/>
</linearGradient>
<path fill="url(#SVGID_4_)" d="M265.738,38.613h-26.831l4.642-14.619h26.831L265.738,38.613z"/>
<linearGradient id="SVGID_5_" gradientUnits="userSpaceOnUse" x1="309.79" y1="0" x2="309.79" y2="62.6079">
	<stop  offset="0" style="stop-color:#F1F2F2"/>
	<stop  offset="1" style="stop-color:#D1D3D4"/>
</linearGradient>
<path fill="url(#SVGID_5_)" d="M295.729,42.483c2.666,3.87,7.74,5.849,12.298,5.849c4.128,0,7.74-1.463,8.342-4.645
	c0.688-3.784-4.644-5.418-9.546-6.105c-9.546-1.548-18.146-9.202-15.995-20.726C293.15,4.387,304.158,0,315.338,0
	c7.396,0,14.275,2.064,19.521,9.718l-11.18,7.74c-2.58-2.924-6.622-4.3-10.148-4.386c-3.869-0.086-7.138,1.376-7.481,4.472
	c-0.43,3.526,2.666,5.074,7.31,6.106c10.578,1.978,20.897,6.02,18.06,21.155c-2.235,11.868-12.556,17.802-25.713,17.802
	c-7.311,0-16.34-3.698-20.984-11.008L295.729,42.483z"/>
<linearGradient id="SVGID_6_" gradientUnits="userSpaceOnUse" x1="361.625" y1="0.7744" x2="361.625" y2="61.7476">
	<stop  offset="0" style="stop-color:#F1F2F2"/>
	<stop  offset="1" style="stop-color:#D1D3D4"/>
</linearGradient>
<path fill="url(#SVGID_6_)" d="M368.376,14.878l-6.45,46.869H346.36l6.45-46.869h-16.426l2.063-14.104h48.417l-2.063,14.104H368.376
	z"/>
<linearGradient id="SVGID_7_" gradientUnits="userSpaceOnUse" x1="401.583" y1="0.8604" x2="401.583" y2="61.7476">
	<stop  offset="0" style="stop-color:#F1F2F2"/>
	<stop  offset="1" style="stop-color:#D1D3D4"/>
</linearGradient>
<path fill="url(#SVGID_7_)" d="M430.091,61.747h-16.512l-2.321-12.212h-16.254l-5.418,12.212h-16.512L402.83,0.86h14.018
	L430.091,61.747z M409.537,35.861l-1.806-17.801h-0.602l-6.708,17.801H409.537z"/>
<linearGradient id="SVGID_8_" gradientUnits="userSpaceOnUse" x1="461.4697" y1="0.8604" x2="461.4697" y2="61.7476">
	<stop  offset="0" style="stop-color:#F1F2F2"/>
	<stop  offset="1" style="stop-color:#D1D3D4"/>
</linearGradient>
<path fill="url(#SVGID_8_)" d="M456.031,42.397h-2.752l-2.666,19.35h-15.565l8.514-60.887h24.338
	c12.556,0,21.499,6.708,19.779,20.983c-1.548,11.266-6.364,15.05-14.706,19.006l14.62,20.897h-19.178L456.031,42.397z
	 M464.201,29.154c4.729,0,7.481-3.526,7.912-7.053c0.43-3.697-1.376-6.88-5.935-6.88h-9.029l-1.979,13.933H464.201z"/>
<linearGradient id="SVGID_9_" gradientUnits="userSpaceOnUse" x1="517.0469" y1="0.7744" x2="517.0469" y2="61.7476">
	<stop  offset="0" style="stop-color:#F1F2F2"/>
	<stop  offset="1" style="stop-color:#D1D3D4"/>
</linearGradient>
<path fill="url(#SVGID_9_)" d="M523.798,14.878l-6.45,46.869h-15.565l6.45-46.869h-16.426l2.063-14.104h48.417l-2.063,14.104
	H523.798z"/>
<linearGradient id="SVGID_10_" gradientUnits="userSpaceOnUse" x1="197.2129" y1="0.9346" x2="197.2129" y2="62.3892">
	<stop  offset="0" style="stop-color:#F1F2F2"/>
	<stop  offset="1" style="stop-color:#D1D3D4"/>
</linearGradient>
<path fill="url(#SVGID_10_)" d="M218.402,9.533c-0.092-0.091-19.651-19.6-42.925,0.453c0,0-19.882,20.055-0.455,42.926
	c0,0,19.998,21.017,43.834,0.454C218.856,53.366,239.55,32.548,218.402,9.533z M220.699,29.22
	c1.571,10.263-4.651,16.364-4.651,16.364l-6.93-7.002C204.8,30.687,220.699,29.22,220.699,29.22z M218.632,22.024l-9.462,2.727
	c-9.001,0.009-2.677-14.652-2.677-14.652C216.263,13.641,218.632,22.024,218.632,22.024z M200.494,38.511
	c0.454,0.454,0.453,1.198,0,1.651c-0.458,0.459-1.203,0.459-1.657,0.005c-0.459-0.459-0.458-1.202,0-1.661
	C199.291,38.053,200.035,38.052,200.494,38.511z M204.537,32.237c-0.459-0.459-0.46-1.204-0.002-1.662
	c0.459-0.459,1.204-0.458,1.663,0.001c0.458,0.457,0.453,1.197-0.005,1.656C205.733,32.691,204.995,32.695,204.537,32.237z
	 M198.563,32.94c-0.729,0.729-1.911,0.729-2.64,0c-0.729-0.729-0.729-1.912,0-2.64s1.911-0.729,2.641,0
	C199.292,31.029,199.292,32.211,198.563,32.94z M198.12,24.924c-0.46-0.459-0.459-1.204-0.006-1.657
	c0.459-0.459,1.201-0.459,1.662,0.001c0.458,0.458,0.458,1.202-0.001,1.661C199.321,25.382,198.578,25.382,198.12,24.924z
	 M191.255,36.212c0.458,0.458,0.458,1.203-0.001,1.662c-0.453,0.453-1.197,0.453-1.656-0.006c-0.453-0.453-0.454-1.197,0-1.65
	C190.058,35.759,190.801,35.759,191.255,36.212z M173.561,34.684c-1.759-10.238,4.358-16.446,4.358-16.446l7.047,6.875
	C189.425,32.925,173.561,34.684,173.561,34.684z M182.785,12.82c8.073-6.543,16.481-4.25,16.481-4.25l-2.548,9.519
	C192.085,25.8,182.785,12.82,182.785,12.82z M189.196,26.58c0.458-0.458,1.202-0.458,1.661,0c0.459,0.459,0.459,1.203,0,1.661
	c-0.453,0.453-1.198,0.453-1.656-0.005S188.743,27.033,189.196,26.58z M175.248,41.843l9.462-2.715
	c9-0.01,2.671,14.646,2.671,14.646C177.619,50.236,175.248,41.843,175.248,41.843z M194.598,55.291l2.461-9.534
	c4.56-7.762,13.978,5.132,13.978,5.132C203.031,57.509,194.598,55.291,194.598,55.291z"/>
</svg>
